<?xml version="1.0" standalone="no"?>
<!DOCTYPE svg PUBLIC "-//W3C//DTD SVG 20010904//EN"
 "http://www.w3.org/TR/2001/REC-SVG-20010904/DTD/svg10.dtd">
<svg version="1.0" xmlns="http://www.w3.org/2000/svg"
 width="500.000000pt" height="500.000000pt" viewBox="0 0 500.000000 500.000000"
 preserveAspectRatio="xMidYMid meet">
<metadata>
Created by potrace 1.11, written by Peter Selinger 2001-2013
</metadata>
<g transform="translate(0.000000,500.000000) scale(0.100000,-0.100000)"
fill="#000000" stroke="none">
<path d="M2501 4598 c-19 -13 -45 -31 -59 -40 -14 -9 -48 -19 -76 -23 -78 -10
-165 -34 -215 -59 -68 -34 -91 -37 -198 -25 -97 11 -139 8 -298 -22 -27 -5
-86 -27 -130 -49 -44 -21 -101 -48 -127 -59 -25 -10 -53 -30 -62 -43 -8 -12
-24 -70 -36 -128 -24 -116 -23 -174 5 -370 17 -116 15 -243 -5 -294 -8 -21
-19 -25 -97 -36 -203 -29 -408 -112 -589 -241 -142 -101 -158 -124 -219 -311
-50 -152 -55 -198 -25 -228 32 -32 63 -33 177 -6 270 64 541 99 775 100 l168
1 0 -792 c0 -920 11 -833 -108 -833 -82 0 -120 -20 -162 -86 -55 -87 -65 -240
-21 -338 28 -64 93 -130 154 -156 50 -22 58 -23 212 -14 204 11 482 11 750 0
182 -8 221 -7 295 8 170 35 306 109 430 235 207 209 339 518 390 911 30 225
23 572 -16 794 -8 48 -14 90 -12 91 2 1 75 -8 163 -21 88 -13 252 -32 365 -44
113 -11 238 -28 278 -36 120 -26 225 -16 345 35 129 54 141 63 172 124 37 75
35 145 -8 219 -70 124 -247 303 -359 363 -29 15 -91 53 -138 83 -121 78 -223
127 -326 157 -49 14 -143 44 -208 66 -181 61 -221 66 -298 34 -45 -18 -93 155
-209 768 -20 104 -32 117 -161 180 -148 73 -236 97 -373 103 -103 5 -112 4
-144 -18z m938 -1404 c18 -4 31 -15 38 -35 11 -28 10 -29 -66 -73 -142 -83
-358 -147 -551 -162 -135 -10 -484 20 -650 56 -102 23 -360 97 -369 106 -3 4
17 3 44 -2 28 -5 241 -8 475 -7 409 2 644 14 696 34 19 7 29 5 40 -6 9 -8 21
-15 28 -15 7 0 69 36 137 79 l124 80 13 -25 c7 -14 25 -27 41 -30z m-1214
-454 c71 -16 319 -50 367 -50 42 0 49 -3 63 -29 25 -50 64 -196 82 -313 23
-154 23 -488 -1 -651 -54 -376 -199 -596 -405 -614 -77 -7 -124 15 -154 71
l-22 41 -3 778 c-2 739 -2 777 15 777 10 0 36 -5 58 -10z"/>
</g>
</svg>
