<svg xmlns="http://www.w3.org/2000/svg" viewBox="0 0 170.1 60">
<g>
	<g>
		<path fill="current" d="M27,24.5c-1.1,0-1.8,0.4-2,1.3c-0.1,0.4-0.2,1.3-0.2,2.8v18.7c0,2,0.7,2.9,2.1,2.9c2,0,3.5-1.2,4.6-3.5
			c1.1-2.3,1.7-5.5,1.7-9.5c0-3.9-0.6-7-1.7-9.3C30.4,25.7,28.9,24.5,27,24.5 M15.7,48.4V26.5c0-0.7-0.3-1.1-0.8-1.1h-0.6h-0.6
			c-0.7,0-1.3-0.4-1.7-1.1c-0.5-0.7-0.7-1.6-0.7-2.6c0-1.3,0.4-2.4,1.1-3.3c0.7-0.9,1.6-1.3,2.8-1.3c0.8,0,2,0.1,3.5,0.2
			c1.1,0.1,2.2,0.2,3.3,0.2c1.7,0,3.1-0.1,4.4-0.2c1.7-0.2,2.8-0.2,3.4-0.2c3.8,0,6.9,1.8,9.3,5.5c2.4,3.7,3.5,8.4,3.5,14.3
			c0,6.3-1.3,11.3-3.8,15.1c-2.5,3.7-5.9,5.6-10.2,5.6c-0.8,0-2-0.1-3.5-0.2c-1.6-0.1-2.7-0.2-3.5-0.2c-1,0-2.1,0.1-3.4,0.2
			c-1.3,0.1-2.2,0.2-2.9,0.2c-1.2,0-2.1-0.4-2.9-1.2c-0.7-0.8-1.1-1.9-1.1-3.3c0-1,0.2-1.9,0.7-2.6c0.5-0.7,1-1.1,1.7-1.1H14h0.4
			h0.5C15.4,49.4,15.7,49.1,15.7,48.4"/>
		<path fill="current" d="M55.1,30.4c-1.1,0-2.1-0.4-2.8-1.2c-0.7-0.8-1.1-1.9-1.1-3.1c0-1.3,0.4-2.4,1.1-3.2c0.7-0.8,1.6-1.3,2.7-1.3
			c1.1,0,2,0.4,2.8,1.3c0.7,0.8,1.1,1.9,1.1,3.2c0,1.2-0.4,2.3-1.1,3.1C57.2,30,56.2,30.4,55.1,30.4 M59.8,52.2h0.5h0.4
			c1.1,0,1.6,0.8,1.6,2.4c0,2.1-0.8,3.2-2.4,3.2c-0.4,0-1-0.1-1.8-0.2c-0.8-0.1-1.4-0.1-1.8-0.1c-0.8,0-1.8,0.1-3.1,0.2
			c-0.3,0-0.8,0.1-1.4,0.1c-1.7,0-2.6-1.1-2.6-3.2c0-1.6,0.5-2.4,1.6-2.4h0.5h0.3h0.2c0.5,0,0.8-0.7,0.8-2.1v-9.7
			c0-1.4-0.2-2.1-0.7-2.1c-0.1,0-0.3,0-0.5,0.1s-0.4,0.1-0.6,0.1c-1.1,0-1.7-0.9-1.7-2.7c0-2,0.7-3,2.3-3c0.3,0,0.9,0.1,1.8,0.1
			C54,33,54.6,33,55,33l2.5-0.2c0.9,0,1.4,0.6,1.4,1.8v15.5C59,51.5,59.3,52.2,59.8,52.2"/>
		<path fill="current" d="M75.6,41.7H81v-0.5c0-1-0.2-1.8-0.7-2.5c-0.5-0.6-1.1-1-1.9-1C76.7,37.8,75.7,39.1,75.6,41.7 M85.4,46.7H75.3
			v0.8c0,3.5,1.1,5.3,3.2,5.3c1.5,0,2.5-0.8,2.9-2.5c0.2-0.9,0.5-1.5,0.8-1.8s1-0.4,1.8-0.4c2.1,0,3.2,1.1,3.2,3.2
			c0,2-0.8,3.7-2.4,5.1c-1.6,1.3-3.6,2-6,2c-3.2,0-5.7-1.1-7.5-3.3s-2.7-5.2-2.7-9.2c0-4.3,0.9-7.6,2.6-10s4.1-3.6,7.2-3.6
			c2.8,0,5,1,6.6,3s2.5,4.7,2.5,8.1c0,1.3-0.2,2.2-0.5,2.7C86.8,46.5,86.2,46.7,85.4,46.7"/>
		<path fill="current" d="M103.2,34.1v1.1c1.7-2,3.7-3,5.9-3c2,0,3.5,0.7,4.7,2.1c1.2,1.4,1.8,3.3,1.8,5.7v10.1c0,1.4,0.2,2.1,0.7,2.1
			h0.2h0.2h0.5c1.1,0,1.6,0.8,1.6,2.4c0,0.9-0.2,1.7-0.7,2.3s-1,0.9-1.8,0.9c-0.3,0-0.8,0-1.8-0.2c-0.6-0.1-1.2-0.1-1.8-0.1
			c-0.4,0-0.9,0-1.6,0.1s-1.3,0.1-1.7,0.1c-1.4,0-2.1-1-2.1-2.9c0-1.2,0.3-2,0.9-2.4c0.6-0.3,0.9-1.1,0.9-2.2v-7.8
			c0-2.6-0.8-3.9-2.3-3.9c-1.6,0-2.5,1.5-2.5,4.4v7.2c0,1.2,0.3,2,0.8,2.3s0.8,1,0.8,2.1c0,2.1-0.7,3.2-2.2,3.2c-0.4,0-1,0-1.7-0.1
			c-0.8-0.1-1.3-0.1-1.7-0.1c-0.4,0-0.9,0-1.6,0.1s-1.3,0.1-1.7,0.1c-1.6,0-2.5-1.1-2.5-3.2c0-1.6,0.6-2.4,1.6-2.4h0.5h0.3h0.2
			c0.5,0,0.8-0.7,0.8-2.1v-9.7c0-1.4-0.2-2.1-0.7-2.1c-0.1,0-0.3,0-0.5,0.1s-0.4,0.1-0.6,0.1c-1.1,0-1.7-0.9-1.7-2.7
			c0-2,0.8-3,2.3-3c0.2,0,0.7,0,1.3,0.1c1,0.1,1.7,0.1,2.2,0.1c0.2,0,0.5,0,0.8-0.1c0.4,0,0.6,0,0.8,0
			C102.9,32.9,103.2,33.3,103.2,34.1"/>
		<path fill="current" d="M132,41.7h5.5v-0.5c0-1-0.2-1.8-0.7-2.5c-0.5-0.6-1.1-1-1.8-1C133.1,37.8,132.1,39.1,132,41.7 M141.8,46.7
			h-10.2v0.8c0,3.5,1.1,5.3,3.2,5.3c1.5,0,2.5-0.8,2.9-2.5c0.2-0.9,0.5-1.5,0.8-1.8s1-0.4,1.9-0.4c2.1,0,3.1,1.1,3.1,3.2
			c0,2-0.8,3.7-2.4,5.1c-1.6,1.3-3.6,2-6,2c-3.2,0-5.7-1.1-7.5-3.3s-2.7-5.2-2.7-9.2c0-4.3,0.9-7.6,2.6-10c1.7-2.4,4.1-3.6,7.2-3.6
			c2.8,0,5,1,6.6,3s2.5,4.7,2.5,8.1c0,1.3-0.2,2.2-0.4,2.7C143.2,46.5,142.6,46.7,141.8,46.7"/>
		<path fill="current" d="M160.7,33.8v1.1c1.5-1.7,3.1-2.6,4.9-2.6c1.3,0,2.4,0.6,3.3,1.7c0.9,1.1,1.3,2.6,1.3,4.3
			c0,1.4-0.3,2.6-0.9,3.5c-0.6,0.9-1.4,1.4-2.4,1.4c-0.8,0-1.5-0.3-2.1-1s-0.8-1.5-0.8-2.5c0-0.5,0.1-1.1,0.3-1.9
			c-1.5,1.2-2.3,3.9-2.3,8.2v3.7c0,1.6,0.2,2.3,0.6,2.3h0.5h0.8c0.5,0,0.9,0.3,1.2,0.8s0.5,1.2,0.5,1.9c0,0.8-0.2,1.5-0.7,2
			c-0.4,0.5-1,0.8-1.6,0.8c-0.3,0-1-0.1-1.9-0.2H159c-0.9,0-1.7,0-2.4,0.1c-1,0.1-1.7,0.1-2.1,0.1c-0.7,0-1.3-0.3-1.8-0.9
			c-0.5-0.6-0.7-1.3-0.7-2.3c0-1.6,0.6-2.4,1.6-2.4h0.5h0.3h0.2c0.5,0,0.8-0.7,0.8-2.1v-9.7c0-1.4-0.2-2.1-0.7-2.1
			c-0.1,0-0.3,0-0.5,0.1s-0.4,0.1-0.6,0.1c-1.1,0-1.7-0.9-1.7-2.7c0-2,0.8-3,2.3-3c0.3,0,0.8,0,1.4,0.1s1.1,0.1,1.4,0.1
			c0.5,0,1.1-0.1,1.8-0.2c0.3-0.1,0.6-0.1,0.7-0.1C160.4,32.7,160.7,33.1,160.7,33.8"/>
	</g>
	<g>
		<path fill="#ffffff" d="M13.1,17.7c-1.3,0.2-2.6,0.3-3.8,0.7c-1.4,0.4-2.7,1-4,1.7c-0.9,0.5-1.7,1.2-2.5,1.7
			c-0.9,0.5-1.3,1.3-1.6,2.2c-0.4,1.1-0.9,2.3-1.2,3.4c-0.3,1.1,0.8,1.6,1.7,1.3c0.7-0.2,1.4-0.3,2-0.5c1.3-0.3,2.6-0.5,3.9-0.7
			c1.2-0.2,2.4-0.3,3.6-0.4c0.2,0,0.4-0.1,0.6-0.1c0.8,0,1.7,0.2,2.5,0.2c0.6,0,1.1-0.2,1.7-0.2c1.2-0.1,2.4-0.1,3.6-0.1
			c1.6,0.1,3.2,0.1,4.7,0.3c1.1,0.1,2.1,0.4,3.2,0.5c1.2,0.1,2.5,0.5,3.7,0.4c0.5,0,1,0.2,1.6,0.2c0.5,0.1,1,0.1,1.5,0.1
			c2.1,0.3,4.1,0.6,6.2,0.9c1.5,0.2,3.1,0.4,4.6,0.7c0.8,0.1,1.5,0.2,2.3,0.3c1.4,0.1,2.9,0.2,4.3,0.4c0.8,0.1,1.5,0.3,2.2,0.4
			c0.9,0.1,1.8,0.1,2.7-0.3c0.8-0.4,1.6-0.6,2.4-1c0.9-0.5,1.5-2,1.3-3s-0.9-1.8-1.6-2.6c-1.2-1.4-2.4-2.7-4.1-3.5
			c-0.5-0.3-1.1-0.6-1.6-0.9c-1.5-1-3.1-1.9-4.9-2.3c-0.1,0-0.2,0-0.3-0.1c-1.4-0.5-2.7-1-4.1-1.3c-0.8-0.2-1.7-0.3-2.4,0.3
			c-1.2-2-1.4-4.2-1.9-6.4c-0.4-1.5-0.5-3-0.9-4.5c-0.2-0.7-0.2-1.4-1.1-1.8c-0.9-0.4-1.8-1-2.7-1.3c-1.1-0.4-2.2-0.6-3.3-0.7
			c-0.8-0.1-1.8-0.1-2.4,0.5C28.3,3,27.3,2.8,26.5,3c-0.7,0.2-1.5,0.3-2,0.7c-0.7,0.5-1.3,0.5-2,0.4c-0.7,0-1.4-0.2-2.1-0.2
			c-0.5,0-1,0.2-1.4,0.2c-1.1,0.1-2.1,0.2-3.1,0.9c-0.4,0.3-0.9,0.5-1.4,0.6c-0.9,0.2-1.5,0.7-1.6,1.7c-0.2,1.2-0.6,2.3-0.4,3.5
			C13.2,13.2,13.7,15.5,13.1,17.7"/>
	</g>
	<g>
		<path fill="#58595B" d="M32.4,3.2c1.5-0.1,2.7,0.4,4,1.1c1.5,0.7,1.8,1.9,2,3.3c0.1,0.9,0.5,1.7,0.7,2.6c0.2,0.7,0.2,1.4,0.3,2.1
			c0.4,2.1,1.2,4.1,2.1,6.1c0.1,0.2,0.1,0.4,0.3,0.6c0.3,0.4,0.2,0.6-0.3,0.7c-0.8,0.1-1.6,0.4-2.5,0.6c0.2,0.1,0.4,0.2,0.6,0.3
			c-1.5,0.9-3,1.4-4.8,1.5c-2.4,0-4.8,0-7.2,0c-1.6,0-3.2,0.2-4.8,0.1c-1.4-0.1-2.8-0.4-4.1-0.7c-0.7-0.2-1.2-0.8-1.9-1.1
			c-0.5-0.3-1.1-0.4-1.6-0.6c-0.2-0.1-0.3-0.1-0.5-0.2c-0.4,0.2,0.1,1.5-1.1,0.9c0.1-0.6,0.2-1.2,0.3-1.9c0.9,0.3,1.7,0.6,2.5,0.8
			c0-0.1,0.1-0.2,0.1-0.3c-0.8-0.4-1.6-0.8-2.5-1.3c0-0.4,0.1-0.9,0.1-1.5c0-1.1,0.1-2.2-0.1-3.3c-0.2-1.7-0.5-3.4-0.1-5.1
			c0.2-0.7,0.3-0.8,1-0.8c0.3,0,0.7-0.3,0.8-0.6C16,5.9,16.5,5.9,17,5.9c1.2,0.1,2.5,0.2,3.7,0.4c1.9,0.2,3.7,0.5,5.6,0.8
			c1.4,0.2,2.7,0.5,4.1,0.8c1.2,0.2,2.5,0.5,3.7,0.6c1.6,0.2,2.6-1.2,2-2.7c-0.4-1-1.3-1.3-2.2-1.7c-0.5-0.2-1.1-0.4-1.6-0.6
			C32.3,3.4,32.4,3.3,32.4,3.2"/>
	</g>
	<g>
		<path fill="#404040" d="M35.2,6.5c-0.6-0.1-1.2-0.3-1.8-0.4c-0.7-0.2-1.4-0.4-2.2-0.5c-1.5-0.2-2.9-0.2-4.4-0.3
			c-0.1,0-0.3-0.1-0.4-0.2c-0.3-0.2-0.7-0.3-1.1-0.5c0.3-0.1,0.7-0.4,1-0.4C27.2,4.1,28.1,4,29,3.9c0.2,0,0.4,0.1,0.5,0.2
			c0.2,0.5,0.6,0.5,1,0.4c1.5-0.4,2.8,0.2,4.1,0.9C35.3,5.6,35.3,6,35.2,6.5"/>
	</g>
	<g>
		<path fill="#404040" d="M34.6,7.8C31.1,7.2,27.5,6.6,24,6.1V6c1.9,0.1,3.7,0.1,5.5,0.4C31,6.6,32.5,7,34,7.3c0.2,0,0.4,0.2,0.7,0.3
			C34.7,7.6,34.6,7.7,34.6,7.8"/>
	</g>
	<g>
		<path fill="#404040" d="M23.1,6c-1.3-0.3-2.5-0.5-3.7-0.8C21,4.8,23,5.2,23.1,6"/>
	</g>
	<g>
		<path fill="#231F20" d="M43.2,22.2c-0.6,0.4-1.2,0.8-1.8,1.1c-0.7,0.4-1.4,0.6-2.2,0.8c-2.4,0.8-4.9,1.1-7.4,0.9
			c-1.9-0.1-3.8-0.2-5.6-0.6c-1.9-0.4-3.8-1-5.7-1.5c-0.1,0-0.1-0.1-0.2-0.1c0-0.1,0-0.1,0-0.2c0.4,0.1,0.8,0.2,1.2,0.2
			c0.3,0,0.5,0.1,0.8,0.1c0.8,0,1.7-0.1,2.5-0.1c0.3,0,0.6,0.1,0.9,0.1c0.8,0,1.5-0.1,2.3-0.2c0.3,0,0.6,0.3,1,0.1
			c0.4-0.2,1.1,0.1,1.7-0.1c0.9-0.2,1.8,0,2.7-0.1c1.1,0,2.1-0.1,3.2-0.2c0.3,0,0.6-0.2,0.9-0.3c0.3,0.6,0.7,0.4,1.1,0.2
			c1-0.6,2-1.2,3-1.9c0.1,0.1,0.2,0.4,0.4,0.7c0.2,0,0.4,0.1,0.7,0.1c0,0,0.1,0,0.2,0v0.1C43,21.8,43.1,22,43.2,22.2 M14,17.9
			c0-0.4,0.1-0.9,0.1-1.5c0-1.1,0.1-2.2-0.1-3.3c-0.2-1.7-0.5-3.4-0.1-5.1c0.2-0.7,0.3-0.8,1-0.8c0.3,0,0.7-0.3,0.8-0.6
			C16,5.9,16.5,5.9,17,5.9c1.2,0.1,2.5,0.2,3.7,0.4c1.9,0.2,3.7,0.5,5.6,0.8c1.4,0.2,2.7,0.5,4.1,0.8c1.2,0.2,2.5,0.5,3.7,0.6
			c1.6,0.2,2.6-1.2,2-2.7c-0.4-1-1.3-1.3-2.2-1.7c-0.5-0.2-1.1-0.4-1.6-0.6c0-0.1,0-0.2,0.1-0.2c1.5-0.1,2.7,0.4,4,1.1
			c1.5,0.7,1.8,1.9,2,3.3c0.1,0.9,0.5,1.7,0.7,2.6c0.2,0.7,0.2,1.4,0.3,2.1c0.4,2.1,1.2,4.1,2.1,6.1c0.1,0.2,0.1,0.4,0.3,0.6
			c0.3,0.4,0.2,0.6-0.3,0.7c-0.8,0.1-1.6,0.4-2.5,0.6c0.2,0.1,0.4,0.2,0.6,0.3c-1.5,0.9-3,1.4-4.8,1.5c-2.4-0.1-4.8-0.1-7.2-0.1
			c-1.6,0-3.2,0.2-4.8,0.1c-1.4-0.1-2.8-0.4-4.1-0.7c-0.7-0.2-1.2-0.8-1.9-1.1c-0.5-0.3-1.1-0.4-1.6-0.6c-0.2-0.1-0.3-0.1-0.5-0.2
			c-0.4,0.2,0.1,1.5-1.1,0.9c0.1-0.6,0.2-1.2,0.3-1.9c0.9,0.3,1.7,0.6,2.5,0.8c0-0.1,0.1-0.2,0.1-0.3C15.7,18.7,14.9,18.3,14,17.9
			 M23.1,6c-1.3-0.3-2.5-0.5-3.7-0.8C21,4.8,23,5.2,23.1,6 M24,6c1.9,0.1,3.7,0.1,5.5,0.4C31,6.6,32.5,7,34,7.3
			c0.2,0,0.4,0.2,0.7,0.3c0,0.1-0.1,0.2-0.1,0.2C31.1,7.2,27.5,6.6,24,6C24,6,24,6,24,6 M26.5,4.1c0.9-0.1,1.8-0.2,2.7-0.3
			c0.2,0,0.4,0.1,0.5,0.2c0.2,0.5,0.6,0.5,1,0.4c1.5-0.4,2.8,0.2,4.1,0.9c0.5,0.3,0.6,0.7,0.4,1.2c-0.6-0.1-1.2-0.3-1.8-0.4
			c-0.7-0.2-1.4-0.4-2.2-0.5c-1.5-0.2-2.9-0.2-4.4-0.3c-0.1,0-0.3-0.1-0.4-0.2c-0.3-0.2-0.7-0.3-1.1-0.5C25.8,4.4,26.1,4.2,26.5,4.1
			 M60.5,26.9c-0.2-1-0.9-1.8-1.6-2.6c-1.2-1.4-2.4-2.7-4.1-3.5c-0.5-0.3-1.1-0.6-1.6-0.9c-1.5-1-3.1-1.9-4.9-2.3
			c-0.1,0-0.2,0-0.3-0.1c-1.4-0.5-2.7-1-4.1-1.3c-0.8-0.2-1.7-0.3-2.4,0.3c-1.2-2-1.4-4.2-1.9-6.4c-0.4-1.5-0.5-3-0.9-4.5
			c-0.2-0.7-0.2-1.4-1.1-1.8c-0.9-0.4-1.8-1-2.7-1.3c-1.1-0.4-2.2-0.6-3.3-0.7c-0.8-0.1-1.8-0.1-2.4,0.5c-0.7,0.8-1.7,0.6-2.5,0.8
			c-0.7,0.2-1.5,0.3-2,0.7c-0.7,0.5-1.3,0.5-2,0.4C22,4.2,21.3,4,20.6,4c-0.5,0-1,0.2-1.4,0.2c-1.1,0.1-2.1,0.2-3.1,0.9
			c-0.4,0.3-0.9,0.5-1.4,0.6c-0.9,0.2-1.5,0.7-1.6,1.7c-0.2,1.2-0.6,2.3-0.4,3.5c0.3,2.3,0.8,4.5,0.2,6.7c-1.3,0.2-2.6,0.3-3.8,0.7
			c-1.4,0.4-2.7,1-4,1.7c-0.9,0.5-1.7,1.2-2.5,1.7C1.7,22.2,1.3,23,1,23.9c-0.2,1.2-0.7,2.4-1,3.5c-0.3,1.1,0.8,1.6,1.7,1.3
			c0.7-0.2,1.4-0.3,2-0.5c1.3-0.3,2.6-0.5,3.9-0.7c1.2-0.2,2.4-0.3,3.6-0.4c0.2,0,0.4-0.1,0.6-0.1c0.8,0,1.7,0.2,2.5,0.2
			c0.6,0,1.1-0.2,1.7-0.2c1.2-0.1,2.4-0.1,3.6-0.1c1.6,0.1,3.2,0.1,4.7,0.3c1.1,0.1,2.1,0.4,3.2,0.5c1.2,0.1,2.5,0.5,3.7,0.4
			c0.5,0,1,0.1,1.6,0.2c0.5,0.1,1,0.1,1.5,0.1c2.1,0.3,4.1,0.6,6.2,0.9c1.5,0.2,3.1,0.4,4.6,0.7c0.8,0.1,1.5,0.2,2.3,0.3
			c1.4,0.1,2.9,0.2,4.3,0.4c0.8,0.1,1.5,0.3,2.2,0.4c0.9,0.1,1.8,0.1,2.7-0.3c0.8-0.4,1.6-0.6,2.4-1C60.1,29.4,60.7,27.9,60.5,26.9"
			/>
	</g>
	<g>
		<path fill="#58595B" d="M58.8,29c-0.4,0.4-0.9,0.6-1.4,0.7c-1.2,0.3-2.5,0.5-3.7,0.6c-1.1,0-2.1-0.4-3.2-0.5
			c-1.2-0.1-2.4-0.2-3.7-0.3c-1.9-0.2-3.8-0.5-5.7-0.8c-1.5-0.2-3.1-0.4-4.6-0.8c-0.5-0.2-1.3,0.3-1.7-0.5h-0.2
			c-0.7,0.6-1.4,0.2-2.1,0c-0.8-0.1-1.6-0.1-2.4-0.2c-1.6-0.1-3.4-0.1-5.1-0.5c-3.4-0.8-6.9-0.5-10.3-0.4c-2.1,0-4.3,0.2-6.4,0.3
			c-0.7,0.1-1.4,0.4-2.2,0.5c-0.7,0.1-1.4,0.2-2.1,0.3c-0.9,0.1-1.7,0.2-2.5,0.3c-0.5-0.7-0.4-1.3-0.1-2c0.6-1.5,1.4-3,2.8-4
			c0.5-0.4,1.1-0.7,1.6-1c1.2-0.5,2.5-0.9,3.7-1.6c0.9-0.6,1.8-0.6,2.7-0.6c0.1,0,0.3,0.1,0.5,0.1c-0.1,0.6-0.1,1.2-0.2,1.9
			c-0.6-0.4-1.2-0.7-1.8-1.1c-0.1-0.1-0.4-0.1-0.5-0.1c-0.1,0.2-0.2,0.4-0.2,0.6c0.3,0.6,0.7,1.2,1,1.7c-1.5,0.7-2.6,1.7-2.3,3.7
			c0,0.3,0.4,0.5,0.6,0.7c0.2-0.2,0.3-0.3,0.5-0.5c0.5-0.5,0.8-1.2,1.4-1.6c0.7-0.5,1.5-0.7,2.3-1c0.2-0.1,0.4-0.2,0.5-0.4
			c0.4-0.7,0.6-0.7,1.3-0.4c1.2,0.5,2.5,0.9,3.8,1.3c1,0.3,1.9,0.7,2.9,1.1c0.4,0.1,0.8,0.2,1.3,0.3c1.4,0.3,2.8,0.5,4.2,0.8
			c0.9,0.2,1.9,0.2,2.8,0.4c0.5,0.1,0.9,0.3,1.4,0.2c2-0.1,4-0.2,5.9-0.6c1.4-0.3,2.7-1,4.1-1.6c0.6-0.3,1.2-0.5,1.7-0.9
			c0.3-0.2,0.5-0.7,0.7-1.1c0,0,0-0.1-0.1-0.2c0-0.1,0-0.2,0-0.4c0-0.5-0.3-1-0.6-1l0,0v-0.1c-0.5-1-1-1.9-1.5-2.8
			c0.4-0.1,0.7-0.3,1.1-0.4c0.3,0,0.5,0.2,0.8,0.2c1.2,0.2,2.4,0.3,3.5,0.6c1.4,0.4,2.8,0.8,4.1,1.4c1.4,0.7,2.8,1.5,4,2.4
			c0.9,0.7,1.6,1.6,2.4,2.5c0.5,0.5,0.9,1.1,1.4,1.7C59.6,26.8,59.6,28.3,58.8,29"/>
	</g>
</g>
</svg>
